<?xml version="1.0" encoding="iso-8859-1"?>
<!-- Uploaded to: SVG Repo, www.svgrepo.com, Generator: SVG Repo Mixer Tools -->
<svg fill="#000000" height="800px" width="800px" version="1.1" id="Layer_1" xmlns="http://www.w3.org/2000/svg" xmlns:xlink="http://www.w3.org/1999/xlink" 
	 viewBox="0 0 502 502" xml:space="preserve">
<g>
	<g>
		<g>
			<path d="M492,128.25H10c-5.522,0-10,4.477-10,10v225.5c0,5.523,4.478,10,10,10h39h404h39c5.522,0,10-4.477,10-10v-225.5
				C502,132.727,497.522,128.25,492,128.25z M443,353.75H59v-75.5h20v41c0,5.523,4.478,10,10,10c5.522,0,10-4.477,10-10v-41h20.375
				v41c0,5.523,4.478,10,10,10c5.522,0,10-4.477,10-10v-41h60.75v41c0,5.523,4.478,10,10,10c5.522,0,10-4.477,10-10v-41H240.5v41
				c0,5.523,4.478,10,10,10c5.522,0,10-4.477,10-10v-41h60.75v41c0,5.523,4.478,10,10,10c5.522,0,10-4.477,10-10v-41h20.375v41
				c0,5.523,4.478,10,10,10c5.522,0,10-4.477,10-10v-41H402v41c0,5.523,4.478,10,10,10c5.522,0,10-4.477,10-10v-41h21V353.75z
				 M482,353.75h-19v-85.5c0-5.523-4.478-10-10-10H49c-5.522,0-10,4.477-10,10v85.5H20v-205.5h462V353.75z"/>
			<path d="M84,249.25c24.813,0,45-20.187,45-45s-20.187-45-45-45s-45,20.187-45,45S59.187,249.25,84,249.25z M84,179.25
				c13.785,0,25,11.215,25,25c0,13.785-11.215,25-25,25c-13.785,0-25-11.215-25-25C59,190.465,70.215,179.25,84,179.25z"/>
			<path d="M420,249.25c24.813,0,45-20.187,45-45s-20.187-45-45-45s-45,20.187-45,45S395.187,249.25,420,249.25z M420,179.25
				c13.785,0,25,11.215,25,25c0,13.785-11.215,25-25,25c-13.785,0-25-11.215-25-25C395,190.465,406.215,179.25,420,179.25z"/>
			<path d="M166,180.25h126c5.522,0,10-4.477,10-10s-4.478-10-10-10H166c-5.522,0-10,4.477-10,10S160.478,180.25,166,180.25z"/>
			<path d="M333,180.25h7c5.522,0,10-4.477,10-10s-4.478-10-10-10h-7c-5.522,0-10,4.477-10,10S327.478,180.25,333,180.25z"/>
		</g>
	</g>
</g>
</svg>