<?xml version="1.0" encoding="iso-8859-1"?>
<!-- Uploaded to: SVG Repo, www.svgrepo.com, Generator: SVG Repo Mixer Tools -->
<!DOCTYPE svg PUBLIC "-//W3C//DTD SVG 1.1//EN" "http://www.w3.org/Graphics/SVG/1.1/DTD/svg11.dtd">
<svg fill="#000000" version="1.1" id="Capa_1" xmlns="http://www.w3.org/2000/svg" xmlns:xlink="http://www.w3.org/1999/xlink" 
	 width="800px" height="800px" viewBox="0 0 326.098 326.098"
	 xml:space="preserve">
<g>
	<path d="M72.282,23.273c-21.07,0-38.209,17.137-38.209,38.207v264.618h257.953V38.209C292.025,17.137,274.886,0,253.816,0
		s-38.21,17.137-38.21,38.209v66.143c-6.286-4.539-13.97-7.25-22.302-7.25c-14.603,0-27.302,8.241-33.733,20.309
		c-6.9-6.793-16.355-10.998-26.779-10.998c-8.329,0-16.018,2.711-22.302,7.249V61.487C110.491,40.415,93.349,23.273,72.282,23.273z
		 M132.793,122.32c7.892,0,14.794,4.143,18.761,10.341c2.216,3.461,3.542,7.549,3.542,11.961v3.946v37.947
		c0,12.298-10.007,22.303-22.303,22.303c-12.295,0-22.302-10.005-22.302-22.303v-37.947v-3.946c0-4.412,1.325-8.5,3.542-11.961
		C118,126.463,124.904,122.32,132.793,122.32z M193.305,113.01c11.387,0,20.707,8.611,22.033,19.651
		c0.108,0.88,0.274,1.745,0.274,2.651v13.256v37.947c0,12.298-10.01,22.303-22.303,22.303s-22.302-10.005-22.302-22.303v-37.947
		v-3.946v-9.31c0-0.906,0.166-1.771,0.27-2.651C172.598,121.621,181.918,113.01,193.305,113.01z M231.515,38.209
		c0-12.295,10.004-22.302,22.302-22.302s22.302,10.007,22.302,22.302V310.19H49.979V61.479c0-12.295,10.007-22.299,22.302-22.299
		c12.298,0,22.302,10.004,22.302,22.299v83.143v3.946v37.947c0,21.075,17.137,38.21,38.209,38.21
		c12.319,0,23.263-5.888,30.256-14.96c6.991,9.072,17.938,14.96,30.256,14.96c21.07,0,38.21-17.135,38.21-38.21v-37.947v-13.256
		V38.209z"/>
	<path d="M158.461,267.973c0,19.024,15.483,34.507,34.507,34.507h69.501v-7.953v-7.953h-69.501c-10.252,0-18.6-8.343-18.6-18.601
		s8.348-18.595,18.6-18.595h69.501v-7.953v-7.954h-69.501C173.944,233.471,158.461,248.948,158.461,267.973z"/>
</g>
</svg>