<?xml version="1.0" encoding="iso-8859-1"?>
<!-- Uploaded to: SVG Repo, www.svgrepo.com, Generator: SVG Repo Mixer Tools -->
<svg height="800px" width="800px" version="1.1" id="Layer_1" xmlns="http://www.w3.org/2000/svg" xmlns:xlink="http://www.w3.org/1999/xlink" 
	 viewBox="0 0 512 512" xml:space="preserve">
<g>
	<circle style="fill:#14B0BF;" cx="256" cy="256" r="256"/>
	<path style="fill:#3387B5;" d="M25.16,145.306c-9.349,19.497-16.118,39.916-20.244,60.769v99.85
		c9.503,48.031,32.845,93.87,70.067,131.092c99.973,99.973,262.062,99.973,362.04,0c56.719-56.719,81.219-133.427,73.585-207.447
		l-99.891-99.881L25.16,145.306z"/>
	<path style="fill:#FFFFFF;" d="M18.104,295.327v-48.317H0.148c-1.295,38.17,5.903,76.59,21.591,112.159h2.765v-55.26
		C20.803,302.812,18.104,299.387,18.104,295.327z M50.673,295.327v-48.317H36.009v48.317c0,4.152-2.826,7.644-6.661,8.658v55.183
		h28.006V303.99C53.509,302.981,50.673,299.484,50.673,295.327z M68.577,295.327c0,4.05-2.693,7.475-6.385,8.581v55.26h28.006
		V247.009H68.577C68.577,247.009,68.577,295.327,68.577,295.327z M116.69,295.327v-48.317H95.043v112.159h28.006v-55.27
		C119.368,302.781,116.69,299.366,116.69,295.327z M149.258,295.327v-48.317h-14.664v48.317c0,4.168-2.852,7.675-6.707,8.668v55.168
		h28.006v-55.188C152.069,302.95,149.258,299.469,149.258,295.327z M182.077,295.327v-48.317h-14.915v48.317
		c0,4.07-2.714,7.506-6.431,8.591v55.245h28.006v-55.178C184.904,302.971,182.077,299.479,182.077,295.327z M199.982,295.327
		c0,4.06-2.703,7.485-6.405,8.586v55.255h28.006V247.009h-21.601V295.327z M248.023,295.327v-48.317h-21.601v112.159h28.006v-55.26
		C250.726,302.812,248.023,299.387,248.023,295.327z M280.596,295.327v-48.317h-14.664v48.317c0,4.152-2.826,7.644-6.661,8.658
		v55.183h28.006V303.99C283.433,302.981,280.596,299.484,280.596,295.327z M298.501,295.327c0,4.05-2.693,7.475-6.385,8.576v55.26
		h28.006V247.009h-21.622V295.327z M346.609,295.327v-48.317h-21.647v112.159h28.006v-55.27
		C349.292,302.781,346.609,299.366,346.609,295.327z M364.518,247.009v48.317c0,4.168-2.852,7.675-6.707,8.668v55.168h28.006
		V247.009H364.518z"/>
	<path d="M18.104,295.327c0,4.06,2.703,7.485,6.405,8.586c0.809,0.241,1.664,0.369,2.55,0.369c0.794,0,1.562-0.102,2.294-0.297
		c3.835-1.014,6.661-4.506,6.661-8.658v-48.317h-17.91V295.327z M50.673,295.327c0,4.157,2.836,7.654,6.682,8.663
		c0.727,0.189,1.49,0.292,2.273,0.292c0.891,0,1.756-0.128,2.57-0.374c3.692-1.106,6.385-4.526,6.385-8.581v-48.317h-17.91V295.327z
		 M248.023,295.327c0,4.06,2.703,7.485,6.405,8.586c0.809,0.241,1.664,0.369,2.55,0.369c0.794,0,1.562-0.102,2.294-0.297
		c3.835-1.014,6.661-4.506,6.661-8.658v-48.317h-17.905v48.317H248.023z M280.596,295.327c0,4.157,2.836,7.654,6.682,8.663
		c0.727,0.189,1.485,0.292,2.273,0.292c0.891,0,1.756-0.128,2.57-0.374c3.692-1.106,6.385-4.526,6.385-8.576v-48.317h-17.905v48.312
		H280.596z M346.609,247.009v48.317c0,4.04,2.678,7.455,6.359,8.571c0.824,0.251,1.695,0.384,2.596,0.384
		c0.773,0,1.526-0.097,2.243-0.282c3.855-0.998,6.707-4.5,6.707-8.668v-48.317h-17.905V247.009z M149.258,295.327
		c0,4.142,2.811,7.629,6.63,8.648c0.742,0.2,1.516,0.302,2.319,0.302c0.876,0,1.72-0.128,2.519-0.358
		c3.717-1.091,6.431-4.526,6.431-8.591v-48.317h-17.905v48.317H149.258z M116.69,295.327c0,4.04,2.678,7.455,6.354,8.571
		c0.819,0.251,1.695,0.384,2.596,0.384c0.773,0,1.526-0.097,2.243-0.282c3.855-0.998,6.707-4.5,6.707-8.668v-48.317h-17.905v48.312
		H116.69z M182.077,295.327c0,4.152,2.826,7.644,6.661,8.658c0.732,0.195,1.5,0.297,2.294,0.297c0.886,0,1.741-0.128,2.55-0.369
		c3.702-1.096,6.405-4.526,6.405-8.586v-48.317h-17.905v48.317H182.077z"/>
	<path style="fill:#A6DAE8;" d="M375.163,151.004c-5.883,0-10.65,4.767-10.65,10.65c0,5.883,4.767,10.65,10.65,10.65
		c5.883,0,10.65-4.767,10.65-10.65C385.812,155.771,381.046,151.004,375.163,151.004z M344.914,151.004
		c-5.883,0-10.65,4.767-10.65,10.65c0,5.883,4.767,10.65,10.65,10.65c5.883,0,10.65-4.767,10.65-10.65
		C355.564,155.771,350.797,151.004,344.914,151.004z M314.665,151.004c-5.883,0-10.65,4.767-10.65,10.65
		c0,5.883,4.767,10.65,10.65,10.65s10.65-4.767,10.65-10.65C325.315,155.771,320.548,151.004,314.665,151.004z M284.416,151.004
		c-5.883,0-10.65,4.767-10.65,10.65c0,5.883,4.767,10.65,10.65,10.65c5.883,0,10.65-4.767,10.65-10.65
		C295.066,155.771,290.299,151.004,284.416,151.004z"/>
	<path style="fill:#FC611F;" d="M375.163,183.532c-5.883,0-10.65,4.767-10.65,10.65c0,5.883,4.767,10.65,10.65,10.65
		c5.883,0,10.65-4.767,10.65-10.65C385.812,188.298,381.046,183.532,375.163,183.532z M344.914,183.532
		c-5.883,0-10.65,4.767-10.65,10.65c0,5.883,4.767,10.65,10.65,10.65c5.883,0,10.65-4.767,10.65-10.65
		C355.564,188.298,350.797,183.532,344.914,183.532z"/>
	<path style="fill:#FDC00F;" d="M314.665,183.532c-5.883,0-10.65,4.767-10.65,10.65c0,5.883,4.767,10.65,10.65,10.65
		s10.65-4.767,10.65-10.65C325.315,188.298,320.548,183.532,314.665,183.532z M284.416,183.532c-5.883,0-10.65,4.767-10.65,10.65
		c0,5.883,4.767,10.65,10.65,10.65c5.883,0,10.65-4.767,10.65-10.65C295.066,188.298,290.299,183.532,284.416,183.532z"/>
	<path style="fill:#2C5871;" d="M400.604,124.667H36.035C13.553,162.33,1.587,204.518,0.148,247.009h90.051v112.159H62.193v-55.265
		c-0.814,0.241-1.674,0.374-2.57,0.374c-0.783,0-1.546-0.102-2.273-0.292v55.178H29.343v-55.178c-0.732,0.195-1.5,0.297-2.294,0.297
		c-0.886,0-1.741-0.128-2.55-0.369v55.255h-2.765c3.625,8.218,7.706,16.282,12.232,24.156h366.628
		c7.332,0,13.276-5.944,13.276-13.276V137.943C413.88,130.611,407.936,124.667,400.604,124.667z M344.914,151.004
		c5.883,0,10.65,4.767,10.65,10.65c0,5.883-4.767,10.65-10.65,10.65c-5.883,0-10.65-4.767-10.65-10.65
		C334.264,155.771,339.036,151.004,344.914,151.004z M344.914,183.532c5.883,0,10.65,4.767,10.65,10.65
		c0,5.883-4.767,10.65-10.65,10.65c-5.883,0-10.65-4.767-10.65-10.65C334.264,188.298,339.036,183.532,344.914,183.532z
		 M314.665,151.004c5.883,0,10.65,4.767,10.65,10.65c0,5.883-4.767,10.65-10.65,10.65c-5.883,0-10.65-4.767-10.65-10.65
		C304.015,155.771,308.782,151.004,314.665,151.004z M284.416,151.004c5.883,0,10.65,4.767,10.65,10.65
		c0,5.883-4.767,10.65-10.65,10.65s-10.65-4.767-10.65-10.65C273.766,155.771,278.533,151.004,284.416,151.004z M284.416,183.532
		c5.883,0,10.65,4.767,10.65,10.65c0,5.883-4.767,10.65-10.65,10.65s-10.65-4.767-10.65-10.65
		C273.766,188.298,278.533,183.532,284.416,183.532z M221.583,359.163h-28.006v-55.255c-0.809,0.241-1.664,0.369-2.55,0.369
		c-0.794,0-1.562-0.102-2.294-0.297v55.183h-28.006v-55.245c-0.799,0.236-1.644,0.358-2.519,0.358c-0.804,0-1.582-0.108-2.319-0.302
		v55.188h-28.006v-55.168c-0.717,0.184-1.469,0.282-2.243,0.282c-0.901,0-1.777-0.133-2.596-0.384v55.27H95.037V247.009h126.541
		v112.154H221.583z M320.123,359.163h-28.006v-55.26c-0.814,0.246-1.674,0.374-2.57,0.374c-0.783,0-1.546-0.102-2.273-0.292v55.178
		h-28.006v-55.178c-0.732,0.195-1.5,0.297-2.294,0.297c-0.886,0-1.741-0.128-2.55-0.369v55.255h-28.006V247.009h93.696v112.154
		H320.123z M314.665,204.826c-5.883,0-10.65-4.767-10.65-10.65s4.767-10.65,10.65-10.65s10.65,4.767,10.65,10.65
		C325.315,200.059,320.548,204.826,314.665,204.826z M385.812,359.163h-28.006v-55.168c-0.717,0.184-1.469,0.282-2.243,0.282
		c-0.901,0-1.777-0.133-2.596-0.384v55.27h-28.006V247.009h60.851L385.812,359.163L385.812,359.163z M375.163,204.826
		c-5.883,0-10.65-4.767-10.65-10.65s4.767-10.65,10.65-10.65c5.883,0,10.65,4.767,10.65,10.65
		C385.812,200.059,381.046,204.826,375.163,204.826z M375.163,172.298c-5.883,0-10.65-4.767-10.65-10.65
		c0-5.883,4.767-10.65,10.65-10.65c5.883,0,10.65,4.767,10.65,10.65C385.812,167.532,381.046,172.298,375.163,172.298z"/>
	<path style="fill:#0F303F;" d="M400.604,383.319H33.976c4.352,7.567,9.114,14.94,14.305,22.124l0,0h352.323
		c7.332,0,13.276-5.944,13.276-13.276v-22.124C413.88,377.375,407.936,383.319,400.604,383.319z"/>
</g>
</svg>