<?xml version="1.0" encoding="iso-8859-1"?>
<!-- Uploaded to: SVG Repo, www.svgrepo.com, Generator: SVG Repo Mixer Tools -->
<!DOCTYPE svg PUBLIC "-//W3C//DTD SVG 1.1//EN" "http://www.w3.org/Graphics/SVG/1.1/DTD/svg11.dtd">
<svg fill="#000000" version="1.1" id="Capa_1" xmlns="http://www.w3.org/2000/svg" xmlns:xlink="http://www.w3.org/1999/xlink" 
	 width="800px" height="800px" viewBox="0 0 92.701 92.701"
	 xml:space="preserve">
<g>
	<g>
		<path d="M12.669,92.594c0.09,0.07,0.199,0.107,0.313,0.107h7.669c0.096,0,0.188-0.025,0.268-0.076l4.283-2.695h43.749
			c0.265,0,0.481-0.205,0.5-0.469l0.162-2.445c0.018-0.27-0.179-0.502-0.445-0.529l-29.629-3.17l6.65-8.721l9.702,0.158
			c0.136-0.002,0.314-0.072,0.411-0.203l3.017-4.129l11.809-4.846l-0.711,5.844c-0.006,0.037-0.006,0.074-0.002,0.109l1.289,12.916
			l-1.408,2.977c-0.057,0.119-0.062,0.26-0.019,0.387l0.652,1.795c0.071,0.197,0.26,0.328,0.47,0.328h14.032
			c0.167,0,0.323-0.082,0.416-0.225c0.093-0.141,0.108-0.312,0.046-0.471l-0.814-1.957c-0.078-0.188-0.261-0.309-0.463-0.309h-3.524
			l-4.278-4.892l1.938-23.123c0.016-0.138-0.029-0.271-0.123-0.373l-1.307-1.469c-0.095-0.106-0.229-0.169-0.373-0.169H60.103
			l-1.903-18.72l1.938-7.748c0.014-0.055,0.019-0.11,0.013-0.168L58.697,14.81l1.385-2.308c0.102-0.165,0.098-0.371-0.012-0.531
			l-3.671-5.586V0.5c0-0.275-0.224-0.5-0.5-0.5h-2.284c-0.26,0-0.476,0.198-0.498,0.456l-0.812,9.139
			c-0.008,0.057-0.001,0.111,0.013,0.166l1.286,5.143L52,34.472l-0.6,0.356c-0.115,0.069-0.197,0.188-0.229,0.319l-0.66,2.989
			l-2.562,22.583l-3.328,0.146c-0.102,0.004-0.195,0.039-0.275,0.1L25.248,75.161c-0.122,0.09-0.195,0.229-0.202,0.383l-0.146,4.058
			l-1.605-0.103l0.141-2.935c0.007-0.143-0.046-0.278-0.146-0.379c-0.1-0.102-0.242-0.149-0.38-0.146l-5.917,0.33l-5.711,0.816
			c-0.102,0.016-0.193,0.059-0.27,0.127l-4.079,3.754c-0.104,0.094-0.161,0.229-0.161,0.367v6.199c0,0.151,0.068,0.295,0.188,0.393
			L12.669,92.594z M7.772,81.654l3.805-3.497l5.515-0.791l5.32-0.296l-0.138,2.873c-0.014,0.273,0.195,0.507,0.469,0.523
			l2.609,0.162c0.133,0.004,0.268-0.037,0.367-0.129c0.1-0.092,0.158-0.219,0.164-0.354l0.153-4.328l18.775-13.963l3.603-0.154
			c0.246-0.012,0.444-0.197,0.477-0.441l2.604-22.955l0.604-2.728l0.632-0.379c0.141-0.083,0.229-0.228,0.241-0.389l1.632-19.906
			c0.005-0.056,0-0.109-0.016-0.162L53.306,9.6l0.769-8.599H55.4v5.538c0,0.099,0.028,0.193,0.082,0.273l3.58,5.449l-1.309,2.178
			c-0.055,0.092-0.077,0.198-0.067,0.305l1.461,15.579l-1.938,7.75c-0.014,0.056-0.019,0.113-0.012,0.172l1.957,19.252
			c0.025,0.258,0.24,0.449,0.497,0.449h17.07l1.014,1.144l-1.94,23.12c-0.012,0.136,0.033,0.269,0.123,0.369l4.568,5.224
			c0.096,0.106,0.231,0.17,0.377,0.17h3.42l0.397,0.959H71.748l-0.461-1.271l1.379-2.912c0.039-0.082,0.055-0.174,0.045-0.264
			l-1.299-13l0.809-6.635c0.021-0.176-0.053-0.353-0.193-0.459c-0.141-0.107-0.33-0.131-0.492-0.064l-12.728,5.225
			c-0.086,0.035-0.16,0.094-0.214,0.168l-2.947,4.029l-9.694-0.156c-0.135,0.006-0.31,0.068-0.405,0.195l-7.343,9.627
			c-0.108,0.146-0.133,0.336-0.063,0.502s0.228,0.279,0.405,0.301l30.036,3.213l-0.102,1.5H25.058c-0.096,0-0.188,0.025-0.268,0.078
			l-4.283,2.695h-7.349L7.77,87.393L7.772,81.654L7.772,81.654z"/>
	</g>
</g>
</svg>