<?xml version="1.0" encoding="utf-8"?><!-- Uploaded to: SVG Repo, www.svgrepo.com, Generator: SVG Repo Mixer Tools -->
<svg fill="#000000" width="800px" height="800px" viewBox="0 0 24 24" id="down-square" data-name="Multi Color" xmlns="http://www.w3.org/2000/svg" class="icon multi-color"><title style="stroke-width: 2;">down square</title><path id="secondary-fill" d="M21,6.27V20a1,1,0,0,1-1,1H4a1,1,0,0,1-1-1V6.27A2,2,0,0,1,4,6H20A2,2,0,0,1,21,6.27Z" style="fill: rgb(44, 169, 188); stroke-width: 2;"></path><path id="primary-stroke" d="M21,4V20a1,1,0,0,1-1,1H4a1,1,0,0,1-1-1V4A1,1,0,0,1,4,3H20A1,1,0,0,1,21,4ZM8,10l4,5,4-5" style="fill: none; stroke: rgb(0, 0, 0); stroke-linecap: round; stroke-linejoin: round; stroke-width: 2;"></path></svg>